<svg width="400" height="400" viewBox="0 0 400 400" fill="none" xmlns="http://www.w3.org/2000/svg">
<rect x="1" y="1" width="398" height="398" rx="19" stroke="#216386" stroke-width="2"/>
<rect x="113" y="234" width="160" height="160" transform="rotate(-90 113 234)" fill="#216386"/>
<rect x="127" y="248" width="160" height="160" transform="rotate(-90 127 248)" fill="#FFCFCF" fill-opacity="0.5"/>
<path d="M149.868 293.672H136.428V308.072H148.524C148.78 308.072 149.036 308.2 149.292 308.456C149.612 308.648 149.772 308.936 149.772 309.32V309.992C149.772 310.568 149.612 310.952 149.292 311.144C149.036 311.336 148.78 311.432 148.524 311.432H136.428V327.656C136.428 327.976 136.332 328.296 136.14 328.616C135.948 328.872 135.628 329 135.18 329H134.508C133.676 329 133.26 328.552 133.26 327.656V291.656C133.26 291.272 133.356 290.952 133.548 290.696C133.74 290.376 134.06 290.216 134.508 290.216H149.868C150.7 290.216 151.116 290.664 151.116 291.56V292.328C151.116 292.776 150.956 293.128 150.636 293.384C150.38 293.576 150.124 293.672 149.868 293.672ZM159.912 329H159.144C158.824 329 158.568 328.84 158.376 328.52C158.184 328.2 158.088 327.88 158.088 327.56V291.656C158.088 290.696 158.44 290.216 159.144 290.216H159.912C160.744 290.216 161.16 290.696 161.16 291.656V327.56C161.16 328.52 160.744 329 159.912 329ZM186.627 329H170.595C169.763 329 169.347 328.552 169.347 327.656V291.656C169.347 291.272 169.443 290.952 169.635 290.696C169.827 290.376 170.147 290.216 170.595 290.216H171.267C171.779 290.216 172.131 290.376 172.323 290.696C172.515 291.016 172.611 291.336 172.611 291.656V325.448H186.627C186.947 325.448 187.203 325.608 187.395 325.928C187.651 326.184 187.779 326.472 187.779 326.792V327.656C187.779 328.104 187.651 328.456 187.395 328.712C187.203 328.904 186.947 329 186.627 329ZM212.321 293.672H204.737V327.656C204.737 327.976 204.609 328.296 204.353 328.616C204.161 328.872 203.841 329 203.393 329H202.817C202.369 329 202.049 328.872 201.857 328.616C201.665 328.296 201.569 327.976 201.569 327.656V293.672H193.889C193.569 293.672 193.281 293.576 193.025 293.384C192.769 293.192 192.641 292.84 192.641 292.328V291.56C192.641 290.664 193.057 290.216 193.889 290.216H212.321C213.153 290.216 213.569 290.664 213.569 291.56V292.328C213.569 293.224 213.153 293.672 212.321 293.672ZM236.781 329H221.421C220.653 329 220.269 328.552 220.269 327.656V291.656C220.269 290.696 220.653 290.216 221.421 290.216H236.781C237.613 290.216 238.029 290.664 238.029 291.56V292.328C238.029 292.776 237.869 293.128 237.549 293.384C237.293 293.576 237.037 293.672 236.781 293.672H223.341V307.496H235.533C235.789 307.496 236.045 307.624 236.301 307.88C236.621 308.072 236.781 308.424 236.781 308.936V309.608C236.781 310.504 236.365 310.952 235.533 310.952H223.341V325.544H236.781C237.613 325.544 238.029 325.992 238.029 326.888V327.656C238.029 328.104 237.869 328.456 237.549 328.712C237.293 328.904 237.037 329 236.781 329ZM266.668 329H265.612C264.972 329 264.556 328.744 264.364 328.232L258.22 313.448H249.676V327.656C249.676 328.552 249.196 329 248.236 329H247.66C247.34 329 247.02 328.936 246.7 328.808C246.444 328.616 246.316 328.232 246.316 327.656V291.56C246.316 290.664 246.764 290.216 247.66 290.216H259.18C261.676 290.216 263.596 290.984 264.94 292.52C266.348 293.992 267.052 296.168 267.052 299.048V304.616C267.052 306.728 266.604 308.488 265.708 309.896C264.876 311.24 263.468 312.36 261.484 313.256L267.531 327.176C267.596 327.432 267.628 327.816 267.628 328.328C267.692 328.776 267.372 329 266.668 329ZM263.884 299.048C263.884 295.4 262.316 293.576 259.18 293.576H249.676V309.992H259.18C262.316 309.992 263.884 308.2 263.884 304.616V299.048Z" fill="#216386"/>
</svg>
