<svg width="400" height="400" viewBox="0 0 400 400" fill="none" xmlns="http://www.w3.org/2000/svg">
<rect x="1" y="1" width="398" height="398" rx="19" stroke="#216386" stroke-width="2"/>
<path d="M166.939 329H161.083C158.651 329 156.763 328.264 155.419 326.792C154.139 325.256 153.499 323.048 153.499 320.168V299.048C153.499 296.296 154.139 294.152 155.419 292.616C156.763 291.016 158.651 290.216 161.083 290.216H166.939C169.371 290.216 171.259 291.016 172.603 292.616C173.947 294.152 174.619 296.296 174.619 299.048V301.64C174.619 302.728 174.203 303.272 173.371 303.272H172.603C172.155 303.272 171.835 303.112 171.643 302.792C171.515 302.472 171.451 302.088 171.451 301.64V299.048C171.451 295.464 169.947 293.672 166.939 293.672H161.083C158.139 293.672 156.667 295.464 156.667 299.048V320.072C156.667 323.72 158.139 325.544 161.083 325.544H166.939C169.947 325.544 171.451 323.72 171.451 320.072V311.912H165.019C164.315 311.912 163.963 311.464 163.963 310.568V309.896C163.963 309.576 164.059 309.256 164.251 308.936C164.443 308.616 164.699 308.456 165.019 308.456H172.795C174.011 308.456 174.619 309.128 174.619 310.472V320.168C174.619 323.048 173.947 325.256 172.603 326.792C171.259 328.264 169.371 329 166.939 329ZM203.386 329H202.33C201.69 329 201.274 328.744 201.082 328.232L194.938 313.448H186.394V327.656C186.394 328.552 185.914 329 184.954 329H184.378C184.058 329 183.738 328.936 183.418 328.808C183.162 328.616 183.034 328.232 183.034 327.656V291.56C183.034 290.664 183.482 290.216 184.378 290.216H195.898C198.394 290.216 200.314 290.984 201.658 292.52C203.066 293.992 203.77 296.168 203.77 299.048V304.616C203.77 306.728 203.322 308.488 202.426 309.896C201.594 311.24 200.186 312.36 198.202 313.256L204.25 327.176C204.314 327.432 204.346 327.816 204.346 328.328C204.41 328.776 204.09 329 203.386 329ZM200.602 299.048C200.602 295.4 199.034 293.576 195.898 293.576H186.394V309.992H195.898C199.034 309.992 200.602 308.2 200.602 304.616V299.048ZM213.443 329H212.675C212.355 329 212.099 328.84 211.907 328.52C211.715 328.2 211.619 327.88 211.619 327.56V291.656C211.619 290.696 211.971 290.216 212.675 290.216H213.443C214.275 290.216 214.691 290.696 214.691 291.656V327.56C214.691 328.52 214.275 329 213.443 329ZM237.662 329H224.798C224.03 329 223.646 328.552 223.646 327.656V291.656C223.646 290.696 224.03 290.216 224.798 290.216H237.662C240.094 290.216 241.982 291.016 243.326 292.616C244.734 294.216 245.438 296.36 245.438 299.048V320.168C245.438 323.048 244.766 325.256 243.422 326.792C242.078 328.264 240.158 329 237.662 329ZM242.27 299.048C242.27 295.464 240.734 293.672 237.662 293.672H226.91V325.544H237.662C240.734 325.544 242.27 323.72 242.27 320.072V299.048Z" fill="#216386"/>
<rect x="203" y="245" width="174" height="84" transform="rotate(-90 203 245)" fill="#FFCFCF"/>
<rect x="113" y="245" width="174" height="84" transform="rotate(-90 113 245)" fill="#216386"/>
</svg>
