<svg width="108" height="98" viewBox="0 0 108 98" fill="none" xmlns="http://www.w3.org/2000/svg">
<rect x="56" y="62" width="30" height="30" transform="rotate(-90 56 62)" fill="#216386"/>
<rect x="56" y="30" width="30" height="30" transform="rotate(-90 56 30)" fill="#FFCFCF"/>
<rect x="24" y="62" width="30" height="30" transform="rotate(-90 24 62)" fill="#216386"/>
<rect x="24" y="30" width="30" height="30" transform="rotate(-90 24 30)" fill="#216386"/>
<path d="M16.4278 97H12.5238C10.9024 97 9.64375 96.5093 8.74775 95.528C7.89442 94.504 7.46775 93.032 7.46775 91.112V77.032C7.46775 75.1973 7.89442 73.768 8.74775 72.744C9.64375 71.6773 10.9024 71.144 12.5238 71.144H16.4278C18.0491 71.144 19.3078 71.6773 20.2038 72.744C21.0998 73.768 21.5478 75.1973 21.5478 77.032V78.76C21.5478 79.4853 21.2704 79.848 20.7158 79.848H20.2038C19.9051 79.848 19.6918 79.7413 19.5638 79.528C19.4784 79.3147 19.4358 79.0587 19.4358 78.76V77.032C19.4358 74.6427 18.4331 73.448 16.4278 73.448H12.5238C10.5611 73.448 9.57975 74.6427 9.57975 77.032V91.048C9.57975 93.48 10.5611 94.696 12.5238 94.696H16.4278C18.4331 94.696 19.4358 93.48 19.4358 91.048V85.608H15.1478C14.6784 85.608 14.4438 85.3093 14.4438 84.712V84.264C14.4438 84.0507 14.5078 83.8373 14.6358 83.624C14.7638 83.4107 14.9344 83.304 15.1478 83.304H20.3318C21.1424 83.304 21.5478 83.752 21.5478 84.648V91.112C21.5478 93.032 21.0998 94.504 20.2038 95.528C19.3078 96.5093 18.0491 97 16.4278 97ZM31.6383 80.168H30.4863C29.6329 80.168 28.9716 80.5093 28.5023 81.192C28.0329 81.832 27.7983 82.6853 27.7983 83.752V96.168C27.7983 96.7227 27.5849 97 27.1583 97H26.7743C26.4329 97 26.2623 96.7227 26.2623 96.168V78.952C26.2623 78.44 26.4329 78.184 26.7743 78.184H27.1583C27.3289 78.184 27.4569 78.2267 27.5423 78.312C27.6276 78.3973 27.7556 78.6533 27.9263 79.08C28.4809 78.7813 28.9289 78.568 29.2703 78.44C29.6543 78.2693 30.0809 78.184 30.5503 78.184H31.6383C31.8089 78.184 31.9583 78.2693 32.0863 78.44C32.2143 78.568 32.2783 78.7387 32.2783 78.952V79.4C32.2783 79.912 32.0649 80.168 31.6383 80.168ZM38.1273 75.752H36.3353C36.2499 75.752 36.2286 75.6453 36.2713 75.432C36.3566 75.2187 36.3993 75.0267 36.3993 74.856V71.976C36.3993 71.7627 36.3566 71.5707 36.2713 71.4C36.2286 71.2293 36.2499 71.144 36.3353 71.144H38.1273C38.2126 71.144 38.2339 71.2293 38.1913 71.4C38.1913 71.5707 38.1913 71.7627 38.1913 71.976V74.856C38.1913 75.0267 38.1913 75.2187 38.1913 75.432C38.2339 75.6453 38.2126 75.752 38.1273 75.752ZM38.1273 97H36.3353C36.2499 97 36.2286 96.9147 36.2713 96.744C36.3566 96.5307 36.3993 96.3387 36.3993 96.168V78.696C36.3993 78.4827 36.3566 78.2907 36.2713 78.12C36.2286 77.9493 36.2499 77.864 36.3353 77.864H38.1273C38.2126 77.864 38.2339 77.9493 38.1913 78.12C38.1913 78.2907 38.1913 78.4827 38.1913 78.696V96.168C38.1913 96.3387 38.1913 96.5307 38.1913 96.744C38.2339 96.9147 38.2126 97 38.1273 97ZM53.8998 97H53.5158C53.3024 97 53.1531 96.9573 53.0678 96.872C52.9824 96.7867 52.8544 96.5307 52.6838 96.104C52.0864 96.4453 51.5744 96.68 51.1478 96.808C50.7211 96.936 50.2731 97 49.8038 97H47.4998C46.0491 97 44.9184 96.552 44.1078 95.656C43.2971 94.76 42.8918 93.416 42.8918 91.624V83.24C42.8918 81.4907 43.2971 80.168 44.1078 79.272C44.9184 78.3333 46.0491 77.864 47.4998 77.864H49.8038C50.2731 77.864 50.7211 77.928 51.1478 78.056C51.5744 78.184 52.1504 78.4613 52.8758 78.888V71.912C52.8758 71.3573 53.0891 71.08 53.5158 71.08H53.8998C54.4118 71.08 54.6678 71.3573 54.6678 71.912V96.168C54.6678 96.7227 54.4118 97 53.8998 97ZM52.8758 83.112C52.8758 80.9787 51.8304 79.912 49.7398 79.912H47.4998C45.6224 79.912 44.6838 81.0213 44.6838 83.24V91.56C44.6838 93.7787 45.6224 94.888 47.4998 94.888H49.7398C51.8304 94.888 52.8758 93.864 52.8758 91.816V83.112ZM69.1153 87.528H62.6513V96.104C62.6513 96.3173 62.5873 96.5307 62.4593 96.744C62.3313 96.9147 62.1179 97 61.8193 97H61.3073C60.7526 97 60.4753 96.7013 60.4753 96.104V72.104C60.4753 71.464 60.7526 71.144 61.3073 71.144H69.1153C70.7366 71.144 71.9953 71.6773 72.8913 72.744C73.7873 73.768 74.2353 75.1973 74.2353 77.032V81.64C74.2353 83.432 73.7873 84.8613 72.8913 85.928C71.9953 86.9947 70.7366 87.528 69.1153 87.528ZM72.1873 77.032C72.1873 74.6427 71.1633 73.448 69.1153 73.448H62.6513V85.16H69.1153C70.0966 85.16 70.8433 84.8827 71.3553 84.328C71.9099 83.7307 72.1873 82.8133 72.1873 81.576V77.032ZM80.6183 97H80.1063C79.8929 97 79.7223 96.8933 79.5943 96.68C79.4663 96.4667 79.4023 96.2533 79.4023 96.04V72.104C79.4023 71.464 79.6369 71.144 80.1063 71.144H80.6183C81.1729 71.144 81.4503 71.464 81.4503 72.104V96.04C81.4503 96.68 81.1729 97 80.6183 97ZM100.924 97H100.348C100.263 97 100.135 96.9787 99.9643 96.936C99.7936 96.8507 99.6016 96.7013 99.3883 96.488L93.6923 85.352L87.9963 96.488C87.7829 96.7013 87.5909 96.8507 87.4203 96.936C87.2496 96.9787 87.1216 97 87.0363 97H86.4603C86.1189 97 85.8843 96.872 85.7563 96.616C85.6283 96.3173 85.6709 95.9973 85.8843 95.656L92.3483 83.368L86.2682 72.488C86.0976 72.104 86.0336 71.784 86.0763 71.528C86.1616 71.272 86.4389 71.144 86.9083 71.144H87.4203C87.8469 71.144 88.1883 71.3787 88.4443 71.848L93.6923 81.32L99.0043 71.848C99.1749 71.592 99.3029 71.4213 99.3883 71.336C99.5163 71.208 99.6869 71.144 99.9003 71.144H100.476C100.903 71.144 101.159 71.272 101.244 71.528C101.33 71.784 101.266 72.104 101.052 72.488L95.0363 83.368L101.628 95.784V96.104C101.628 96.7013 101.394 97 100.924 97Z" fill="#216386"/>
</svg>
