<svg width="400" height="400" viewBox="0 0 400 400" fill="none" xmlns="http://www.w3.org/2000/svg">
<rect x="1" y="1" width="398" height="398" rx="19" stroke="#216386" stroke-width="2"/>
<rect x="113" y="248" width="174" height="174" transform="rotate(-90 113 248)" fill="#216386"/>
<rect x="136" y="204" width="86" height="127" transform="rotate(-90 136 204)" fill="#FFCFCF"/>
<path d="M135.959 329H129.719C127.223 329 125.303 328.264 123.959 326.792C122.615 325.256 121.943 323.048 121.943 320.168V317.96C121.943 316.936 122.327 316.424 123.095 316.424H123.959C124.791 316.424 125.207 316.936 125.207 317.96V320.072C125.207 323.72 126.711 325.544 129.719 325.544H135.959C139.031 325.544 140.567 323.72 140.567 320.072V317.384C140.567 315.976 140.023 314.792 138.935 313.832C137.847 312.872 136.407 312.168 134.615 311.72C133.207 311.4 131.799 311.08 130.391 310.76C128.983 310.376 127.639 309.832 126.359 309.128C125.079 308.424 124.023 307.56 123.191 306.536C122.359 305.448 121.943 304.072 121.943 302.408V299.048C121.943 296.36 122.615 294.216 123.959 292.616C125.367 291.016 127.287 290.216 129.719 290.216H135.959C138.391 290.216 140.279 291.016 141.623 292.616C143.031 294.216 143.735 296.36 143.735 299.048V300.584C143.735 301.672 143.319 302.216 142.487 302.216H141.815C140.983 302.216 140.567 301.672 140.567 300.584V299.048C140.567 295.464 139.031 293.672 135.959 293.672H129.719C126.711 293.672 125.207 295.464 125.207 299.048V302.312C125.207 303.4 125.623 304.392 126.455 305.288C127.287 306.12 128.791 306.792 130.967 307.304C132.439 307.624 133.847 307.976 135.191 308.36C136.599 308.68 137.975 309.224 139.319 309.992C140.599 310.696 141.655 311.624 142.487 312.776C143.319 313.864 143.735 315.336 143.735 317.192V320.168C143.735 323.048 143.063 325.256 141.719 326.792C140.375 328.264 138.455 329 135.959 329ZM168.765 329H153.405C152.637 329 152.253 328.552 152.253 327.656V291.656C152.253 290.696 152.637 290.216 153.405 290.216H168.765C169.597 290.216 170.013 290.664 170.013 291.56V292.328C170.013 292.776 169.853 293.128 169.533 293.384C169.277 293.576 169.021 293.672 168.765 293.672H155.325V307.496H167.517C167.773 307.496 168.029 307.624 168.285 307.88C168.605 308.072 168.765 308.424 168.765 308.936V309.608C168.765 310.504 168.349 310.952 167.517 310.952H155.325V325.544H168.765C169.597 325.544 170.013 325.992 170.013 326.888V327.656C170.013 328.104 169.853 328.456 169.533 328.712C169.277 328.904 169.021 329 168.765 329ZM195.58 329H179.548C178.716 329 178.3 328.552 178.3 327.656V291.656C178.3 291.272 178.396 290.952 178.588 290.696C178.78 290.376 179.1 290.216 179.548 290.216H180.22C180.732 290.216 181.084 290.376 181.276 290.696C181.468 291.016 181.564 291.336 181.564 291.656V325.448H195.58C195.9 325.448 196.156 325.608 196.348 325.928C196.604 326.184 196.732 326.472 196.732 326.792V327.656C196.732 328.104 196.604 328.456 196.348 328.712C196.156 328.904 195.9 329 195.58 329ZM220.89 329H205.53C204.762 329 204.378 328.552 204.378 327.656V291.656C204.378 290.696 204.762 290.216 205.53 290.216H220.89C221.722 290.216 222.138 290.664 222.138 291.56V292.328C222.138 292.776 221.978 293.128 221.658 293.384C221.402 293.576 221.146 293.672 220.89 293.672H207.45V307.496H219.642C219.898 307.496 220.154 307.624 220.41 307.88C220.73 308.072 220.89 308.424 220.89 308.936V309.608C220.89 310.504 220.474 310.952 219.642 310.952H207.45V325.544H220.89C221.722 325.544 222.138 325.992 222.138 326.888V327.656C222.138 328.104 221.978 328.456 221.658 328.712C221.402 328.904 221.146 329 220.89 329ZM245.017 329H238.201C235.705 329 233.785 328.264 232.441 326.792C231.097 325.256 230.425 323.048 230.425 320.168V299.048C230.425 296.36 231.097 294.216 232.441 292.616C233.849 291.016 235.769 290.216 238.201 290.216H245.017C247.449 290.216 249.337 291.016 250.681 292.616C252.089 294.216 252.793 296.36 252.793 299.048V301.64C252.793 302.088 252.697 302.472 252.505 302.792C252.313 303.112 251.993 303.272 251.545 303.272H250.873C250.041 303.272 249.625 302.728 249.625 301.64V299.048C249.625 295.464 248.089 293.672 245.017 293.672H238.201C235.193 293.672 233.689 295.464 233.689 299.048V320.072C233.689 323.72 235.193 325.544 238.201 325.544H245.017C248.089 325.544 249.625 323.72 249.625 320.072V317.48C249.625 316.52 250.041 316.04 250.873 316.04H251.545C251.929 316.04 252.217 316.2 252.409 316.52C252.665 316.84 252.793 317.16 252.793 317.48V320.168C252.793 323.048 252.121 325.256 250.777 326.792C249.433 328.264 247.513 329 245.017 329ZM278.462 293.672H270.878V327.656C270.878 327.976 270.75 328.296 270.494 328.616C270.302 328.872 269.982 329 269.534 329H268.958C268.51 329 268.19 328.872 267.998 328.616C267.806 328.296 267.71 327.976 267.71 327.656V293.672H260.03C259.71 293.672 259.422 293.576 259.166 293.384C258.91 293.192 258.782 292.84 258.782 292.328V291.56C258.782 290.664 259.198 290.216 260.03 290.216H278.462C279.294 290.216 279.71 290.664 279.71 291.56V292.328C279.71 293.224 279.294 293.672 278.462 293.672Z" fill="#216386"/>
</svg>
