<svg width="400" height="400" viewBox="0 0 400 400" fill="none" xmlns="http://www.w3.org/2000/svg">
<rect x="1" y="1" width="398" height="398" rx="19" stroke="#216386" stroke-width="2"/>
<rect x="113" y="248" width="174" height="174" transform="rotate(-90 113 248)" fill="#216386"/>
<rect x="136" y="204" width="86" height="127" transform="rotate(-90 136 204)" fill="#FFCFCF"/>
<path d="M134.177 329H127.937C125.441 329 123.521 328.264 122.177 326.792C120.833 325.256 120.161 323.048 120.161 320.168V317.96C120.161 316.936 120.545 316.424 121.313 316.424H122.177C123.009 316.424 123.425 316.936 123.425 317.96V320.072C123.425 323.72 124.929 325.544 127.937 325.544H134.177C137.249 325.544 138.785 323.72 138.785 320.072V317.384C138.785 315.976 138.241 314.792 137.153 313.832C136.065 312.872 134.625 312.168 132.833 311.72C131.425 311.4 130.017 311.08 128.609 310.76C127.201 310.376 125.857 309.832 124.577 309.128C123.297 308.424 122.241 307.56 121.409 306.536C120.577 305.448 120.161 304.072 120.161 302.408V299.048C120.161 296.36 120.833 294.216 122.177 292.616C123.585 291.016 125.505 290.216 127.937 290.216H134.177C136.609 290.216 138.497 291.016 139.841 292.616C141.249 294.216 141.953 296.36 141.953 299.048V300.584C141.953 301.672 141.537 302.216 140.705 302.216H140.033C139.201 302.216 138.785 301.672 138.785 300.584V299.048C138.785 295.464 137.249 293.672 134.177 293.672H127.937C124.929 293.672 123.425 295.464 123.425 299.048V302.312C123.425 303.4 123.841 304.392 124.673 305.288C125.505 306.12 127.009 306.792 129.185 307.304C130.657 307.624 132.065 307.976 133.409 308.36C134.817 308.68 136.193 309.224 137.537 309.992C138.817 310.696 139.873 311.624 140.705 312.776C141.537 313.864 141.953 315.336 141.953 317.192V320.168C141.953 323.048 141.281 325.256 139.937 326.792C138.593 328.264 136.673 329 134.177 329ZM166.984 329H151.624C150.856 329 150.472 328.552 150.472 327.656V291.656C150.472 290.696 150.856 290.216 151.624 290.216H166.984C167.816 290.216 168.232 290.664 168.232 291.56V292.328C168.232 292.776 168.072 293.128 167.752 293.384C167.496 293.576 167.24 293.672 166.984 293.672H153.544V307.496H165.736C165.992 307.496 166.248 307.624 166.504 307.88C166.824 308.072 166.984 308.424 166.984 308.936V309.608C166.984 310.504 166.568 310.952 165.736 310.952H153.544V325.544H166.984C167.816 325.544 168.232 325.992 168.232 326.888V327.656C168.232 328.104 168.072 328.456 167.752 328.712C167.496 328.904 167.24 329 166.984 329ZM196.871 329H195.815C195.175 329 194.759 328.744 194.567 328.232L188.423 313.448H179.879V327.656C179.879 328.552 179.399 329 178.439 329H177.863C177.543 329 177.223 328.936 176.903 328.808C176.647 328.616 176.519 328.232 176.519 327.656V291.56C176.519 290.664 176.967 290.216 177.863 290.216H189.383C191.879 290.216 193.799 290.984 195.143 292.52C196.551 293.992 197.255 296.168 197.255 299.048V304.616C197.255 306.728 196.807 308.488 195.911 309.896C195.079 311.24 193.671 312.36 191.687 313.256L197.735 327.176C197.799 327.432 197.831 327.816 197.831 328.328C197.895 328.776 197.575 329 196.871 329ZM194.087 299.048C194.087 295.4 192.519 293.576 189.383 293.576H179.879V309.992H189.383C192.519 309.992 194.087 308.2 194.087 304.616V299.048ZM222.671 329H207.311C206.543 329 206.159 328.552 206.159 327.656V291.656C206.159 290.696 206.543 290.216 207.311 290.216H222.671C223.503 290.216 223.919 290.664 223.919 291.56V292.328C223.919 292.776 223.759 293.128 223.439 293.384C223.183 293.576 222.927 293.672 222.671 293.672H209.231V307.496H221.423C221.679 307.496 221.935 307.624 222.191 307.88C222.511 308.072 222.671 308.424 222.671 308.936V309.608C222.671 310.504 222.255 310.952 221.423 310.952H209.231V325.544H222.671C223.503 325.544 223.919 325.992 223.919 326.888V327.656C223.919 328.104 223.759 328.456 223.439 328.712C223.183 328.904 222.927 329 222.671 329ZM246.798 329H239.982C237.486 329 235.566 328.264 234.222 326.792C232.878 325.256 232.206 323.048 232.206 320.168V299.048C232.206 296.36 232.878 294.216 234.222 292.616C235.63 291.016 237.55 290.216 239.982 290.216H246.798C249.23 290.216 251.118 291.016 252.462 292.616C253.87 294.216 254.574 296.36 254.574 299.048V301.64C254.574 302.088 254.478 302.472 254.286 302.792C254.094 303.112 253.774 303.272 253.326 303.272H252.654C251.822 303.272 251.406 302.728 251.406 301.64V299.048C251.406 295.464 249.87 293.672 246.798 293.672H239.982C236.974 293.672 235.47 295.464 235.47 299.048V320.072C235.47 323.72 236.974 325.544 239.982 325.544H246.798C249.87 325.544 251.406 323.72 251.406 320.072V317.48C251.406 316.52 251.822 316.04 252.654 316.04H253.326C253.71 316.04 253.998 316.2 254.19 316.52C254.446 316.84 254.574 317.16 254.574 317.48V320.168C254.574 323.048 253.902 325.256 252.558 326.792C251.214 328.264 249.294 329 246.798 329ZM280.243 293.672H272.659V327.656C272.659 327.976 272.531 328.296 272.275 328.616C272.083 328.872 271.763 329 271.315 329H270.739C270.291 329 269.971 328.872 269.779 328.616C269.587 328.296 269.491 327.976 269.491 327.656V293.672H261.811C261.491 293.672 261.203 293.576 260.947 293.384C260.691 293.192 260.563 292.84 260.563 292.328V291.56C260.563 290.664 260.979 290.216 261.811 290.216H280.243C281.075 290.216 281.491 290.664 281.491 291.56V292.328C281.491 293.224 281.075 293.672 280.243 293.672Z" fill="#216386"/>
</svg>
